<?xml version="1.0" encoding="utf-8"?>
<!-- Generator: Adobe Illustrator 24.1.1, SVG Export Plug-In . SVG Version: 6.00 Build 0)  -->
<svg version="1.1" id="Слой_1" xmlns="http://www.w3.org/2000/svg" xmlns:xlink="http://www.w3.org/1999/xlink" x="0px" y="0px"
	 viewBox="0 0 350 280" style="enable-background:new 0 0 350 280;" xml:space="preserve">
<style type="text/css">
	.st0{fill:#00A99D;}
</style>
<g>
	<polygon class="st0" points="103.37,108.75 103.37,118.28 111.62,123.05 120.12,127.96 120.12,138.81 120.12,146.3 120.12,152.04 
		115.15,154.91 111.62,156.95 111.62,151.91 111.62,144.5 111.62,143.44 111.62,142.38 111.62,133.9 103.37,129.14 95.14,124.39 
		95.14,118.28 95.14,108.75 86.89,113.51 70.14,123.19 70.14,156.81 86.89,166.49 95.14,171.25 95.14,161.72 95.14,150.86 
		95.14,142.39 86.89,137.63 86.89,146.1 86.89,156.95 78.39,152.04 78.39,141.19 78.39,133.7 78.39,127.96 83.37,125.09 
		86.89,123.05 86.89,128.1 95.14,132.86 103.37,137.62 103.37,138.67 103.37,146.08 103.37,147.15 103.37,155.61 103.37,161.72 
		103.37,171.25 111.62,166.48 128.37,156.81 128.37,123.19 111.62,113.52 	"/>
	<polygon class="st0" points="281.98,120.75 272.83,120.75 265.13,130.14 266.68,138.03 263.42,134.11 255.52,124.53 246.37,124.53 
		258.06,138.67 240.22,159.25 249.42,159.25 262.63,144.21 270.4,153.55 279.57,153.55 267.22,138.68 	"/>
	<rect x="235.75" y="124.53" class="st0" width="7.6" height="29.02"/>
	<polygon class="st0" points="214.82,124.53 207.23,124.53 207.23,153.55 231.42,153.55 231.42,148.65 214.82,148.65 	"/>
	<polygon class="st0" points="176.96,153.55 202.51,153.55 202.51,148.65 184.56,148.65 184.56,129.42 202.51,129.42 202.51,124.53 
		176.96,124.53 	"/>
	<rect x="188.06" y="136.3" class="st0" width="10.59" height="4.9"/>
	<polygon class="st0" points="170.7,124.53 163.1,124.53 163.1,136.88 151.01,136.88 151.01,141.78 163.1,141.78 163.1,153.55 
		170.7,153.55 170.7,141.78 174.83,141.78 174.83,136.88 170.7,136.88 	"/>
	<rect x="141.68" y="124.53" class="st0" width="7.6" height="29.02"/>
</g>
</svg>
